<svg xmlns="http://www.w3.org/2000/svg" width="645" height="97"><path fill="#00823D" d="M98.1 53.3c0-15.4 12.1-27.6 27.7-27.6 10.2 0 16.6 4.2 19.8 9.5l-11.1 8.4c-1.6-2.7-4.7-4.7-8.8-4.7-7.3 0-12.5 6-12.5 13.5 0 5.8 4.5 9.2 10.2 9.2 3.6 0 6.8-1.8 8.8-4.2l8 9.8c-3.3 3.6-9.7 7.5-18.3 7.5-14.6.1-23.8-8.8-23.8-21.4m84.6-5.3c0-5.7-3.6-9.1-9.4-9.1-7.1 0-11.7 6.6-11.7 13.6 0 5.7 3.6 9.1 9.4 9.1 7 .1 11.7-6.5 11.7-13.6m-36.3 5.3c0-14.4 11.3-27.6 27.5-27.6 15.8 0 24.1 9.4 24.1 21.6 0 14.4-11.3 27.5-27.5 27.5-15.7 0-24.1-9.4-24.1-21.5m53.9 20.3l14.2-64.5h14.9l-14.2 64.5zm25.8 0l14.2-64.5h14.9L241 73.6zm25.7 0l10.3-46.7H277l-10.3 46.7zm37.7 0l-8-46.7h15.3l3.8 29.6 17.3-29.6h16.2l-28.7 46.7zm76.1-28.3c.1-.1.1-.6.1-.7 0-3-2.5-7.3-9-7.3-5.6 0-9.7 4.4-10.4 8h19.3zM330 53.6c0-15 11.4-27.9 27.4-27.9 11.8 0 21.5 7.4 21.5 21.1 0 2.9-.6 6.5-1 8.1h-33.1v.6c0 2.3 3.5 7.7 11.2 7.7 3.9 0 8.4-1.1 10.9-2.9l4.5 9.9c-4.5 3.1-10.9 4.5-16.6 4.5-14.8.1-24.8-7.6-24.8-21.1m51.2 20l10.3-46.7h14.9l-1.3 5.6c3.8-4.1 9.1-6.9 16.2-6.9L418 40.3c-.8-.2-2.7-.7-4.8-.7-4.1 0-8 1.9-10.6 4.6l-6.5 29.4h-14.9zm41 3.8c1.2.5 3.1.7 4.8.7 2.4 0 4.1-.7 5.3-2.5l1.8-3-7.9-46.9h15.3l3.9 29.6 17.3-29.6h16.2l-33 53.4c-5.6 9.2-11.2 12.3-19.8 12.3-3 0-6.2-.4-8.6-1.2l4.7-12.8zm112.5-3.8l6.5-29.3c.2-.9.5-1.9.5-2.9 0-4.7-3.8-6.7-7.8-6.7-5.6 0-10.3 3.2-13.3 6.3l-7.2 32.6h-10.2l10.3-46.7h10.2l-1.5 6.4c3.9-3.7 9.2-7.5 16-7.5 8.7 0 14.3 4.4 14.3 11.8 0 .9-.3 2.9-.5 3.9l-7.2 32.2h-10.1zm63.2-27.1c.1-.3.1-1 .1-1.4 0-6-4.1-11-12.3-11-7.4 0-13.3 5.9-14.6 12.4h26.8zm-38.1 7.4c0-15.3 11.4-28.1 26.7-28.1 12.1 0 20.6 8.1 20.6 20.7 0 2.5-.5 5.7-.9 7.2H570c0 .3-.1 1.2-.1 1.6 0 5.3 4.7 11.2 14.2 11.2 4.3 0 9.2-1.4 12.5-3.9l3.2 7.1c-4.4 3.2-10.5 5.1-16.4 5.1-14.5 0-23.6-8-23.6-20.9m56.3 11.4c0-.6.1-1.9.3-3l5.9-26.6h-7.7l2-8.8h7.7l2.8-12.8h10.2l-2.8 12.8h9.5l-2 8.8h-9.5l-5.3 24.1c-.1.5-.2 1.2-.2 1.8 0 2.6 1.5 4.2 4.6 4.2 1.5 0 3.1-.6 3.9-1.3l.6 8.1c-1.7 1.4-4.5 2.1-7.4 2.1-7.7.1-12.6-2.9-12.6-9.4"/><path fill="#D9262E" d="M263.8 14.2c0-4.7 3.8-8.5 8.5-8.5s8.5 3.8 8.5 8.5-3.8 8.6-8.5 8.6-8.5-3.9-8.5-8.6m208 50.8c0-4.7 3.8-8.5 8.5-8.5s8.5 3.8 8.5 8.5-3.8 8.6-8.5 8.6-8.5-3.8-8.5-8.6"/><path fill="#00823D" d="M1 24.8v47.4l41.1 23.7 41.1-23.7V24.8L42.1 1.1z"/><path fill="#FFF" d="M21.6 36.6v23.8l20.5 11.8 20.6-11.8V36.6L42.1 24.8z"/><path fill="#D9262E" d="M83.2 42.8v-18L42.1 48.5l41.1 23.7v-18"/></svg>